<?xml version="1.0" encoding="utf-8"?>
<!-- Generator: Adobe Illustrator 27.7.0, SVG Export Plug-In . SVG Version: 6.00 Build 0)  -->
<svg version="1.1" id="Layer_2_00000018934906911480919540000015624731580744912296_"
	 xmlns="http://www.w3.org/2000/svg" xmlns:xlink="http://www.w3.org/1999/xlink" x="0px" y="0px" viewBox="0 0 367.1 338.6"
	 style="enable-background:new 0 0 367.1 338.6;" xml:space="preserve">
<style type="text/css">
	.st0{fill:#808080;}
	.st1{fill:#FFFFFF;}
	.st2{fill:#B1B1B1;}
</style>
<g id="Layer_2-2">
	<g>
		<path class="st0" d="M195.6,1.2l-9.5,25.1h22.4L199,1.2C198.5-0.4,196.2-0.4,195.6,1.2L195.6,1.2z"/>
		<path class="st0" d="M197.4,337.4l9.5-25.1h-22.4l9.5,25.1C194.5,339,196.8,339,197.4,337.4L197.4,337.4z"/>
		<path class="st0" d="M365.9,167.5l-24.5-9.3c-0.3-0.1-0.6,0.1-0.6,0.4v21.1c0,0.3,0.3,0.5,0.6,0.4l24.5-9.3
			C367.5,170.3,367.5,168.1,365.9,167.5L365.9,167.5z"/>
		<path class="st1" d="M197.3,25.1c-79.6,0-144.1,64.5-144.1,144.1s64.5,144.1,144.1,144.1s144.1-64.5,144.1-144.1
			S276.9,25.1,197.3,25.1z M194.8,297.6c-70.9,0-128.3-57.5-128.3-128.3c0-12.9,4.3-24.8,5.4-37c1.5-16.6,18.8-38.1,18.8-38.1
			c23.3-32.2,61.2-53.2,104.1-53.2c70.9,0,128.3,57.5,128.3,128.3S265.7,297.6,194.8,297.6L194.8,297.6z"/>
		<path class="st1" d="M309.1,156.5l-40.2-13.1l-5.8-14.6c-0.6-1.6-2-2.9-3.6-3.4l-85.9-26.8c-1.9-0.6-4-0.1-5.5,1.3l-16.3,16.3
			l157.5,44.5L309.1,156.5L309.1,156.5z"/>
		<polygon class="st1" points="142.4,123.7 308.8,164.9 308.2,180.6 128.2,140 		"/>
		<path class="st1" d="M129.1,123.7l-8.9,11.4L64.8,129C64.8,129,82.5,115.3,129.1,123.7z"/>
		<path class="st1" d="M141.6,109.7l-7.6,9.4c0,0-27.6-6.9-57.9-2.2C76,116.9,85.1,102.8,141.6,109.7L141.6,109.7z"/>
		<path class="st1" d="M291.9,222.6l-200.5-3.1c-1.3,0-2.5-0.5-3.5-1.3l-86-74.8c-3.1-2.7-2.2-7.8,1.7-9.2
			c19.6-7.1,90-10.5,303.9,46.1c2.6,0.7,0.4-2.7,0,0c-1.2,9.5-4.7,30.8-11,39.9C295.4,221.8,293.7,222.7,291.9,222.6L291.9,222.6z"
			/>
		<polygon class="st2" points="304.4,201.2 109.3,171.4 301.5,210.9 		"/>
		<circle class="st2" cx="147.5" cy="161.8" r="3.9"/>
		<circle class="st2" cx="170.9" cy="165.7" r="3.9"/>
		<circle class="st2" cx="193.8" cy="169.5" r="3.9"/>
		<circle class="st2" cx="218.5" cy="174.3" r="3.9"/>
		<circle class="st2" cx="246.1" cy="180.6" r="3.9"/>
		<circle class="st2" cx="271.2" cy="185.6" r="3.7"/>
		<circle class="st2" cx="292.7" cy="189.8" r="3.5"/>
		<path class="st1" d="M157.8,93.1l-10.5,12.3c0,0-32.6-5.6-57.2,0c0,0,4.6-5.5,18-9.4C118.7,92.9,134.6,90.8,157.8,93.1"/>
		<path class="st2" d="M96.6,227.5c0,0-9.4-8.3-44-39.7c0,0,94.2-2.3,244.4,30.4l-6.3,10.9"/>
		<path class="st0" d="M97.3,233.6c10.9,26.3,50.9,53.1,98.6,53.1c65.6,0,118.8-53.2,118.8-118.8S259,49,195.8,49
			c-41.5,0-72.3,14.6-94.1,42l0,0c0,0,7.6-3.7,12.7-3.4l0,0C135.2,63.9,161,55.3,195,55.3c57.8,0,108.4,43.1,112.3,99.4
			c0.4,5.3,0.8,9.3,0.8,13.8c0.1,21.8-6.1,42.1-16.8,59.3l-4.8,7.2l0.4-0.5c-13.8,0.1-25.6,0.3-39.4,0.4c0.2,0.8,1.2,0.9,2.1,1
			s1.9,0.4,1.8,1.2c0,1-1.4,1.1-2.4,0.9c-2.9-0.6-5.8-0.9-8.8-1c-1.2,0-2.6,0.1-2.7,1.4c7,2.8,15.1,0.4,22.4,2.4
			c0.9,0.2,2,0.9,1.6,1.8c-0.2,0.6-1,0.7-1.7,0.8c-11.8,0.6-23.8-1.5-34.9,2.6c2.6,1.7,5.6,2.7,8.7,2.9c2.6,0.2,5.5-0.1,7.3,1.8
			c0.1,0.2,0.3,0.4,0.3,0.6c0,0.5-0.5,0.8-1,0.9c-3.7,1.1-7.6,1.1-11.4,1.1c-21.3,0-41.4-0.4-63.1-1.3c-0.6,0-0.7-0.9-0.1-1
			c4.8-0.8,9.7-1.1,14.6-0.9c0.4-0.7-0.5-1.3-1.2-1.6c-4.4-1.7-14.5-2.4-13.9-2.4c1-0.4,2.1-0.8,3.1-1.3c0.4-0.7,0-1.7-0.7-2.1
			s-1.6-0.4-2.4-0.3c-8,0.4-16.1,1.1-24-0.4c-0.3-0.9,1-1.5,1.9-1.6c4.4-0.4,8.9-0.9,13.3-1.3c-0.8-0.6-1.7-1.1-2.6-1.3
			c2-1.2,6.6-3.6,9-3.9c-19.1,0-41.2,0-60.7,0"/>
	</g>
</g>
</svg>
