<?xml version="1.0" encoding="UTF-8"?>
<svg id="Layer_2" data-name="Layer 2" xmlns="http://www.w3.org/2000/svg" viewBox="0 0 367.12 338.61">
  <defs>
    <style>
      .cls-1 {
        fill: #fff;
      }

      .cls-2 {
        fill: #fec521;
      }

      .cls-3 {
        fill: #193b4a;
      }

      .cls-4 {
        fill: #17a6a6;
      }

      .cls-5 {
        fill: none;
        stroke: #000;
        stroke-miterlimit: 10;
      }
    </style>
  </defs>
  <g id="Layer_2-2" data-name="Layer 2">
    <g>
      <path class="cls-4" d="m195.64,1.18l-9.49,25.12h22.39l-9.49-25.12c-.59-1.57-2.81-1.57-3.4,0Z"/>
      <path class="cls-4" d="m197.36,337.43l9.49-25.12h-22.39l9.49,25.12c.59,1.57,2.81,1.57,3.4,0Z"/>
      <path class="cls-4" d="m365.94,167.52l-24.54-9.28c-.28-.11-.58.1-.58.4v21.15c0,.3.3.51.58.4l24.54-9.28c1.57-.59,1.57-2.81,0-3.4Z"/>
      <path class="cls-5" d="m286.6,235.05c-20.58,28.27-53.92,46.64-91.56,46.64s-72.15-19.02-92.63-48.14"/>
      <path class="cls-1" d="m197.34,25.12c-79.58,0-144.1,64.52-144.1,144.1s64.52,144.1,144.1,144.1,144.1-64.52,144.1-144.1S276.92,25.12,197.34,25.12Zm-2.5,272.43c-70.87,0-128.33-57.45-128.33-128.33,0-12.86,4.31-24.8,5.41-36.98,1.51-16.63,18.85-38.12,18.85-38.12,23.31-32.25,61.24-53.23,104.07-53.23,70.88,0,128.33,57.46,128.33,128.33s-57.45,128.33-128.33,128.33Z"/>
      <path class="cls-1" d="m309.13,156.46l-40.22-13.1-5.79-14.6c-.64-1.62-1.99-2.87-3.65-3.39l-85.93-26.79c-1.93-.6-4.04-.08-5.48,1.35l-16.28,16.28,157.47,44.54-.11-4.3Z"/>
      <polygon class="cls-1" points="142.42 123.74 308.84 164.89 308.18 180.63 128.19 139.95 142.42 123.74"/>
      <path class="cls-1" d="m129.07,123.74l-8.94,11.4-55.31-6.18s17.66-13.65,64.25-5.22Z"/>
      <path class="cls-1" d="m141.55,109.7l-7.6,9.41s-27.57-6.88-57.94-2.17c0,0,9.08-14.12,65.54-7.24Z"/>
      <path class="cls-1" d="m291.85,222.64l-200.46-3.12c-1.28-.02-2.51-.49-3.48-1.33L1.87,143.42c-3.14-2.73-2.17-7.8,1.74-9.22,19.65-7.13,90-10.46,303.85,46.14,2.64.7.36-2.71,0,0-1.25,9.51-4.67,30.75-11.04,39.95-1.04,1.49-2.74,2.37-4.56,2.35Z"/>
      <polygon class="cls-2" points="304.38 201.15 109.33 171.35 301.49 210.85 304.38 201.15"/>
      <circle class="cls-2" cx="147.48" cy="161.82" r="3.87"/>
      <circle class="cls-2" cx="170.88" cy="165.69" r="3.87"/>
      <circle class="cls-2" cx="193.84" cy="169.49" r="3.87"/>
      <circle class="cls-2" cx="218.51" cy="174.25" r="3.87"/>
      <circle class="cls-2" cx="246.09" cy="180.63" r="3.87"/>
      <circle class="cls-2" cx="271.18" cy="185.63" r="3.68"/>
      <circle class="cls-2" cx="292.73" cy="189.82" r="3.5"/>
      <path class="cls-1" d="m157.84,93.05l-10.5,12.31s-32.55-5.58-57.18,0c0,0,4.63-5.46,18.04-9.37,10.5-3.06,26.38-5.16,49.64-2.94"/>
      <line class="cls-3" x1="291.32" y1="228" x2="97.28" y2="226.48"/>
      <path class="cls-2" d="m96.6,227.49s-9.37-8.29-44.04-39.7c0,0,94.23-2.28,244.36,30.38l-6.28,10.85"/>
      <path class="cls-4" d="m97.28,233.55c10.92,26.29,50.9,53.11,98.56,53.11,65.63,0,118.83-53.2,118.83-118.83s-55.63-118.83-118.83-118.83c-41.49,0-72.28,14.61-94.05,41.98h0s7.55-3.65,12.69-3.36h0c20.75-23.76,46.53-32.29,80.56-32.29,57.83,0,108.37,43.1,112.34,99.36.37,5.29.8,9.27.83,13.82.15,21.76-6.14,42.08-16.78,59.34l-4.83,7.2.39-.52c-13.79.05-25.64.34-39.42.38.21.79,1.24.93,2.06.98s1.86.41,1.82,1.23c-.04.96-1.42,1.06-2.37.88-2.88-.56-5.81-.88-8.75-.97-1.24-.04-2.57.11-2.7,1.35,7.02,2.79,15.12.4,22.42,2.35.89.24,1.98.95,1.64,1.8-.24.6-1.01.73-1.66.76-11.8.57-23.84-1.48-34.94,2.57,2.6,1.68,5.64,2.67,8.72,2.86,2.57.16,5.54-.09,7.28,1.81.15.16.29.35.3.57.04.5-.54.79-1.02.93-3.67,1.06-7.55,1.09-11.38,1.09-21.31,0-41.41-.44-63.14-1.3-.6-.02-.66-.91-.06-1,4.83-.76,9.74-1.07,14.62-.91.35-.68-.5-1.34-1.22-1.62-4.43-1.71-14.52-2.4-13.94-2.45,1.02-.42,2.05-.84,3.07-1.26.45-.69-.02-1.68-.74-2.07s-1.6-.36-2.42-.31c-8.01.45-16.13,1.09-24.01-.45-.32-.9.96-1.47,1.91-1.57,4.43-.45,8.85-.89,13.28-1.34-.78-.62-1.68-1.08-2.64-1.34,2.03-1.23,6.65-3.56,8.99-3.95-19.1,0-41.21.01-60.67,0"/>
    </g>
  </g>
</svg>